<mxfile host="65bd71144e">
    <diagram id="MGJ-xcYh7WUB6rbfQYf-" name="Page-1">
        <mxGraphModel dx="1933" dy="694" grid="1" gridSize="10" guides="1" tooltips="1" connect="1" arrows="1" fold="1" page="1" pageScale="1" pageWidth="850" pageHeight="1100" math="0" shadow="0">
            <root>
                <mxCell id="0"/>
                <mxCell id="1" parent="0"/>
                <mxCell id="17" value="" style="whiteSpace=wrap;html=1;strokeColor=#000000;fillColor=default;dashed=1;" parent="1" vertex="1">
                    <mxGeometry x="109" y="200" width="181" height="177" as="geometry"/>
                </mxCell>
                <mxCell id="7" style="edgeStyle=none;html=1;entryX=1;entryY=0.5;entryDx=0;entryDy=0;entryPerimeter=0;" parent="1" source="2" target="5" edge="1">
                    <mxGeometry relative="1" as="geometry"/>
                </mxCell>
                <mxCell id="24" style="edgeStyle=orthogonalEdgeStyle;html=1;entryX=0.5;entryY=1;entryDx=0;entryDy=0;endArrow=classicThin;endFill=1;dashed=1;" parent="1" source="2" target="17" edge="1">
                    <mxGeometry relative="1" as="geometry">
                        <Array as="points">
                            <mxPoint x="639" y="430"/>
                            <mxPoint x="200" y="430"/>
                        </Array>
                    </mxGeometry>
                </mxCell>
                <mxCell id="49" value="inspect" style="edgeLabel;html=1;align=center;verticalAlign=middle;resizable=0;points=[];" vertex="1" connectable="0" parent="24">
                    <mxGeometry x="-0.0221" y="-3" relative="1" as="geometry">
                        <mxPoint as="offset"/>
                    </mxGeometry>
                </mxCell>
                <mxCell id="48" style="edgeStyle=none;html=1;endArrow=classic;endFill=1;" edge="1" parent="1" source="2" target="47">
                    <mxGeometry relative="1" as="geometry"/>
                </mxCell>
                <mxCell id="2" value="FIS Template" style="sketch=0;points=[[0,0,0],[0.25,0,0],[0.5,0,0],[0.75,0,0],[1,0,0],[0,1,0],[0.25,1,0],[0.5,1,0],[0.75,1,0],[1,1,0],[0,0.25,0],[0,0.5,0],[0,0.75,0],[1,0.25,0],[1,0.5,0],[1,0.75,0]];points=[[0,0,0],[0.25,0,0],[0.5,0,0],[0.75,0,0],[1,0,0],[0,1,0],[0.25,1,0],[0.5,1,0],[0.75,1,0],[1,1,0],[0,0.25,0],[0,0.5,0],[0,0.75,0],[1,0.25,0],[1,0.5,0],[1,0.75,0]];outlineConnect=0;fontColor=#232F3E;gradientColor=#F34482;gradientDirection=north;fillColor=#BC1356;strokeColor=#ffffff;dashed=0;verticalLabelPosition=bottom;verticalAlign=top;align=center;html=1;fontSize=12;fontStyle=0;aspect=fixed;shape=mxgraph.aws4.resourceIcon;resIcon=mxgraph.aws4.fault_injection_simulator;" parent="1" vertex="1">
                    <mxGeometry x="600" y="260" width="78" height="78" as="geometry"/>
                </mxCell>
                <mxCell id="9" style="edgeStyle=none;html=1;entryX=0;entryY=0.5;entryDx=0;entryDy=0;entryPerimeter=0;" parent="1" source="3" target="5" edge="1">
                    <mxGeometry relative="1" as="geometry"/>
                </mxCell>
                <mxCell id="23" value="設定ファイル参照" style="edgeLabel;html=1;align=center;verticalAlign=middle;resizable=0;points=[];" parent="9" vertex="1" connectable="0">
                    <mxGeometry x="-0.0176" y="-1" relative="1" as="geometry">
                        <mxPoint as="offset"/>
                    </mxGeometry>
                </mxCell>
                <mxCell id="3" value="Target Lambda" style="sketch=0;points=[[0,0,0],[0.25,0,0],[0.5,0,0],[0.75,0,0],[1,0,0],[0,1,0],[0.25,1,0],[0.5,1,0],[0.75,1,0],[1,1,0],[0,0.25,0],[0,0.5,0],[0,0.75,0],[1,0.25,0],[1,0.5,0],[1,0.75,0]];outlineConnect=0;fontColor=#232F3E;gradientColor=#F78E04;gradientDirection=north;fillColor=#D05C17;strokeColor=#ffffff;dashed=0;verticalLabelPosition=bottom;verticalAlign=top;align=center;html=1;fontSize=12;fontStyle=0;aspect=fixed;shape=mxgraph.aws4.resourceIcon;resIcon=mxgraph.aws4.lambda;" parent="1" vertex="1">
                    <mxGeometry x="130" y="260" width="78" height="78" as="geometry"/>
                </mxCell>
                <mxCell id="4" value="Role" style="sketch=0;outlineConnect=0;fontColor=#232F3E;gradientColor=none;fillColor=#BF0816;strokeColor=none;dashed=0;verticalLabelPosition=bottom;verticalAlign=top;align=center;html=1;fontSize=12;fontStyle=0;aspect=fixed;pointerEvents=1;shape=mxgraph.aws4.role;" parent="1" vertex="1">
                    <mxGeometry x="540" y="203" width="78" height="44" as="geometry"/>
                </mxCell>
                <mxCell id="5" value="S3 Bucket" style="sketch=0;points=[[0,0,0],[0.25,0,0],[0.5,0,0],[0.75,0,0],[1,0,0],[0,1,0],[0.25,1,0],[0.5,1,0],[0.75,1,0],[1,1,0],[0,0.25,0],[0,0.5,0],[0,0.75,0],[1,0.25,0],[1,0.5,0],[1,0.75,0]];outlineConnect=0;fontColor=#232F3E;gradientColor=#60A337;gradientDirection=north;fillColor=#277116;strokeColor=#ffffff;dashed=0;verticalLabelPosition=bottom;verticalAlign=top;align=center;html=1;fontSize=12;fontStyle=0;aspect=fixed;shape=mxgraph.aws4.resourceIcon;resIcon=mxgraph.aws4.s3;" parent="1" vertex="1">
                    <mxGeometry x="350" y="260" width="78" height="78" as="geometry"/>
                </mxCell>
                <mxCell id="6" value="Role" style="sketch=0;outlineConnect=0;fontColor=#232F3E;gradientColor=none;fillColor=#BF0816;strokeColor=none;dashed=0;verticalLabelPosition=bottom;verticalAlign=top;align=center;html=1;fontSize=12;fontStyle=0;aspect=fixed;pointerEvents=1;shape=mxgraph.aws4.role;" parent="1" vertex="1">
                    <mxGeometry x="200" y="203" width="78" height="44" as="geometry"/>
                </mxCell>
                <mxCell id="8" value="障害設定ファイル" style="aspect=fixed;html=1;points=[];align=center;image;fontSize=12;image=img/lib/azure2/general/File.svg;" parent="1" vertex="1">
                    <mxGeometry x="450" y="208.8" width="31" height="38.2" as="geometry"/>
                </mxCell>
                <mxCell id="15" style="edgeStyle=none;html=1;" parent="1" source="13" target="14" edge="1">
                    <mxGeometry relative="1" as="geometry"/>
                </mxCell>
                <mxCell id="13" value="Layer" style="whiteSpace=wrap;html=1;strokeColor=#FF8000;" parent="1" vertex="1">
                    <mxGeometry x="109" y="175" width="60" height="19" as="geometry"/>
                </mxCell>
                <mxCell id="14" value="" style="outlineConnect=0;dashed=0;verticalLabelPosition=bottom;verticalAlign=top;align=center;html=1;shape=mxgraph.aws3.cloud_2;fillColor=#F58534;gradientColor=none;strokeColor=#FF8000;" parent="1" vertex="1">
                    <mxGeometry x="106.5" y="40" width="65" height="65" as="geometry"/>
                </mxCell>
                <mxCell id="16" value="AWS管理のLayer&lt;br&gt;Arn参照" style="text;html=1;align=center;verticalAlign=middle;resizable=0;points=[];autosize=1;strokeColor=none;fillColor=default;" parent="1" vertex="1">
                    <mxGeometry x="88" y="118.80000000000001" width="120" height="40" as="geometry"/>
                </mxCell>
                <mxCell id="18" value="既存リソース" style="text;html=1;align=center;verticalAlign=middle;resizable=0;points=[];autosize=1;strokeColor=none;fillColor=none;" parent="1" vertex="1">
                    <mxGeometry x="110" y="203" width="90" height="30" as="geometry"/>
                </mxCell>
                <mxCell id="20" style="edgeStyle=none;html=1;endArrow=none;endFill=0;" parent="1" source="19" target="6" edge="1">
                    <mxGeometry relative="1" as="geometry"/>
                </mxCell>
                <mxCell id="19" value="S3アクセスのPolicy追加必要" style="text;html=1;align=center;verticalAlign=middle;resizable=0;points=[];autosize=1;strokeColor=#FF0000;fillColor=none;strokeWidth=3;" parent="1" vertex="1">
                    <mxGeometry x="233" y="145" width="180" height="30" as="geometry"/>
                </mxCell>
                <mxCell id="22" style="edgeStyle=none;html=1;entryX=1.056;entryY=0.084;entryDx=0;entryDy=0;entryPerimeter=0;endArrow=none;endFill=0;" parent="1" source="21" target="8" edge="1">
                    <mxGeometry relative="1" as="geometry"/>
                </mxCell>
                <mxCell id="21" value="FISにより作成、アップロードされる" style="text;html=1;align=center;verticalAlign=middle;resizable=0;points=[];autosize=1;strokeColor=none;fillColor=none;" parent="1" vertex="1">
                    <mxGeometry x="418" y="145" width="220" height="30" as="geometry"/>
                </mxCell>
                <mxCell id="25" value="Target: Lambda関数Arn" style="whiteSpace=wrap;html=1;strokeColor=#FF3399;fillColor=default;align=left;" parent="1" vertex="1">
                    <mxGeometry x="700" y="263.5" width="160" height="20" as="geometry"/>
                </mxCell>
                <mxCell id="26" value="Action: Lambda起動エラー、呼び出し遅延追加" style="whiteSpace=wrap;html=1;strokeColor=#FF3399;fillColor=default;align=left;" parent="1" vertex="1">
                    <mxGeometry x="701" y="293.5" width="269" height="20" as="geometry"/>
                </mxCell>
                <mxCell id="29" value="環境変数" style="swimlane;fontStyle=0;childLayout=stackLayout;horizontal=1;startSize=30;horizontalStack=0;resizeParent=1;resizeParentMax=0;resizeLast=0;collapsible=1;marginBottom=0;whiteSpace=wrap;html=1;strokeColor=#FF8000;fillColor=default;" parent="1" vertex="1">
                    <mxGeometry x="-52" y="243.5" width="140" height="90" as="geometry"/>
                </mxCell>
                <mxCell id="30" value="AWS_FIS_CONFIGURATION_LOCATION" style="text;strokeColor=none;fillColor=none;align=left;verticalAlign=middle;spacingLeft=4;spacingRight=4;overflow=hidden;points=[[0,0.5],[1,0.5]];portConstraint=eastwest;rotatable=0;whiteSpace=wrap;html=1;fontSize=6;" parent="29" vertex="1">
                    <mxGeometry y="30" width="140" height="30" as="geometry"/>
                </mxCell>
                <mxCell id="31" value="AWS_LAMBDA_EXEC_WRAPPER" style="text;strokeColor=none;fillColor=none;align=left;verticalAlign=middle;spacingLeft=4;spacingRight=4;overflow=hidden;points=[[0,0.5],[1,0.5]];portConstraint=eastwest;rotatable=0;whiteSpace=wrap;html=1;fontSize=6;" parent="29" vertex="1">
                    <mxGeometry y="60" width="140" height="30" as="geometry"/>
                </mxCell>
                <mxCell id="36" style="edgeStyle=orthogonalEdgeStyle;html=1;entryX=0.5;entryY=0;entryDx=0;entryDy=0;fontSize=6;endArrow=none;endFill=0;" parent="1" source="35" target="29" edge="1">
                    <mxGeometry relative="1" as="geometry"/>
                </mxCell>
                <mxCell id="35" value="環境変数追加" style="text;html=1;align=center;verticalAlign=middle;resizable=0;points=[];autosize=1;strokeColor=#FF0000;fillColor=none;strokeWidth=3;" parent="1" vertex="1">
                    <mxGeometry x="-32" y="180" width="100" height="30" as="geometry"/>
                </mxCell>
                <mxCell id="38" style="edgeStyle=none;html=1;entryX=1;entryY=0.25;entryDx=0;entryDy=0;endArrow=none;endFill=0;" edge="1" parent="1" source="37" target="13">
                    <mxGeometry relative="1" as="geometry"/>
                </mxCell>
                <mxCell id="37" value="Layerの追加" style="text;html=1;align=center;verticalAlign=middle;resizable=0;points=[];autosize=1;strokeColor=#FF0000;fillColor=none;strokeWidth=3;" vertex="1" parent="1">
                    <mxGeometry x="253" y="88.8" width="90" height="30" as="geometry"/>
                </mxCell>
                <mxCell id="42" value="" style="group" vertex="1" connectable="0" parent="1">
                    <mxGeometry x="-60" y="470" width="274" height="30" as="geometry"/>
                </mxCell>
                <mxCell id="40" value="" style="whiteSpace=wrap;html=1;strokeColor=#FF0000;strokeWidth=3;" vertex="1" parent="42">
                    <mxGeometry y="2.5" width="70" height="25" as="geometry"/>
                </mxCell>
                <mxCell id="41" value="：既存Lambdaに対して必要な設定" style="text;html=1;align=center;verticalAlign=middle;resizable=0;points=[];autosize=1;strokeColor=none;fillColor=none;" vertex="1" parent="42">
                    <mxGeometry x="64" width="210" height="30" as="geometry"/>
                </mxCell>
                <mxCell id="43" value="SSM Automation" style="sketch=0;outlineConnect=0;fontColor=#232F3E;gradientColor=none;fillColor=#B0084D;strokeColor=none;dashed=0;verticalLabelPosition=bottom;verticalAlign=top;align=center;html=1;fontSize=12;fontStyle=0;aspect=fixed;pointerEvents=1;shape=mxgraph.aws4.automation;strokeWidth=3;" vertex="1" parent="1">
                    <mxGeometry x="40" y="620" width="64" height="64" as="geometry"/>
                </mxCell>
                <mxCell id="44" value="SSM Document&lt;br&gt;Lambda事前準備" style="sketch=0;outlineConnect=0;fontColor=#232F3E;gradientColor=none;fillColor=#B0084D;strokeColor=none;dashed=0;verticalLabelPosition=bottom;verticalAlign=top;align=center;html=1;fontSize=12;fontStyle=0;aspect=fixed;pointerEvents=1;shape=mxgraph.aws4.documents;strokeWidth=3;" vertex="1" parent="1">
                    <mxGeometry x="176" y="520" width="54" height="65.81" as="geometry"/>
                </mxCell>
                <mxCell id="45" value="SSM Document&lt;br&gt;Lambda設定削除" style="sketch=0;outlineConnect=0;fontColor=#232F3E;gradientColor=none;fillColor=#B0084D;strokeColor=none;dashed=0;verticalLabelPosition=bottom;verticalAlign=top;align=center;html=1;fontSize=12;fontStyle=0;aspect=fixed;pointerEvents=1;shape=mxgraph.aws4.documents;strokeWidth=3;" vertex="1" parent="1">
                    <mxGeometry x="176" y="627.81" width="54" height="65.81" as="geometry"/>
                </mxCell>
                <mxCell id="46" value="既存Lambdaの設定を変更し&lt;br&gt;・実験準備するためのSSM Document&lt;br&gt;・実験設定を削除するSSM Document&lt;br&gt;を作成" style="text;html=1;align=left;verticalAlign=middle;resizable=0;points=[];autosize=1;strokeColor=none;fillColor=none;" vertex="1" parent="1">
                    <mxGeometry x="-70" y="520" width="230" height="70" as="geometry"/>
                </mxCell>
                <mxCell id="47" value="CloudWatch Logs" style="sketch=0;outlineConnect=0;fontColor=#232F3E;gradientColor=none;fillColor=#B0084D;strokeColor=none;dashed=0;verticalLabelPosition=bottom;verticalAlign=top;align=center;html=1;fontSize=12;fontStyle=0;aspect=fixed;pointerEvents=1;shape=mxgraph.aws4.logs;strokeWidth=3;" vertex="1" parent="1">
                    <mxGeometry x="690" y="402" width="78" height="58" as="geometry"/>
                </mxCell>
                <mxCell id="50" value="Resource Groups" style="aspect=fixed;html=1;points=[];align=center;image;fontSize=12;image=img/lib/azure2/general/Tag.svg;strokeColor=#FF0000;strokeWidth=3;" vertex="1" parent="1">
                    <mxGeometry x="400" y="440" width="48" height="47.15" as="geometry"/>
                </mxCell>
                <mxCell id="51" value="実験対象タグ" style="aspect=fixed;html=1;points=[];align=center;image;fontSize=12;image=img/lib/azure2/general/Tag.svg;strokeColor=#FF0000;strokeWidth=3;" vertex="1" parent="1">
                    <mxGeometry x="235" y="322" width="28" height="27.5" as="geometry"/>
                </mxCell>
                <mxCell id="53" style="edgeStyle=none;html=1;entryX=0.956;entryY=0.154;entryDx=0;entryDy=0;entryPerimeter=0;endArrow=none;endFill=0;" edge="1" parent="1" source="52" target="50">
                    <mxGeometry relative="1" as="geometry"/>
                </mxCell>
                <mxCell id="52" value="tagをベースに対象を決定" style="text;html=1;align=center;verticalAlign=middle;resizable=0;points=[];autosize=1;strokeColor=none;fillColor=none;" vertex="1" parent="1">
                    <mxGeometry x="481" y="457.15" width="160" height="30" as="geometry"/>
                </mxCell>
            </root>
        </mxGraphModel>
    </diagram>
</mxfile>
